<?xml version="1.0" standalone="no"?>
<!DOCTYPE svg PUBLIC "-//W3C//DTD SVG 20010904//EN"
 "http://www.w3.org/TR/2001/REC-SVG-20010904/DTD/svg10.dtd">
<svg version="1.0" xmlns="http://www.w3.org/2000/svg"
 width="800.000000pt" height="800.000000pt" viewBox="0 0 800.000000 800.000000"
 preserveAspectRatio="xMidYMid meet">
<metadata>
Created by potrace 1.14, written by Peter Selinger 2001-2017
</metadata>
<g transform="translate(0.000000,800.000000) scale(0.100000,-0.100000)"
fill="#000000" stroke="none">
<path d="M3835 6413 c-179 -15 -423 -69 -581 -129 -646 -241 -1140 -823 -1310
-1541 -105 -447 -108 -982 -8 -1433 165 -739 675 -1320 1368 -1559 430 -148
959 -170 1446 -60 380 86 760 299 976 546 172 198 290 432 355 708 28 120 27
151 -5 184 l-26 26 -355 3 c-232 2 -368 -1 -395 -8 -44 -12 -62 -38 -74 -104
-13 -70 -67 -204 -107 -266 -102 -159 -242 -261 -447 -330 -141 -47 -246 -61
-482 -67 -241 -6 -383 8 -538 53 -428 124 -722 467 -832 973 -19 87 -50 311
-50 363 l0 28 1658 0 c1652 0 1658 0 1680 20 12 11 25 32 28 46 11 44 -4 573
-20 691 -67 501 -211 863 -463 1165 -156 188 -405 376 -653 495 -197 94 -475
169 -714 192 -101 10 -357 12 -451 4z m485 -768 c347 -50 618 -241 768 -540
68 -137 124 -329 147 -512 l7 -53 -1217 0 -1217 0 7 38 c29 166 130 411 232
565 71 108 260 293 363 356 248 150 546 198 910 146z"/>
</g>
</svg>
